# xmcd
#
# Track frame offsets: 
#        180
#        11842
#        21883
#        29277
#        41262
#        54472
#        68906
#        80127
#        91811
#        103268
#        115712
#        126599
#        139490
#        147030
#        157558
#        167624
#
# Disc length: 2411 seconds
#
# Revision: 1
# Processed by: cddbd v1.5.2PL0 Copyright (c) Steve Scherf et al.
# Submitted via: ExactAudioCopy v0.90b4
#
DISCID=d2096910
DTITLE=Various Artist - Country and Western melodies 2
DYEAR=1900
DGENRE=Country
TTITLE0=Johnny Paycheck - Take this job and shove it
TTITLE1=Barbara Mandrell - Release me
TTITLE2=Conway Twitty - Treat me mean, treat me cruel
TTITLE3=Dolly Parton - Making believe
TTITLE4=Kenny Rogers - Ruby, don't take your love to town
TTITLE5=Carl Perkins - Red neck
TTITLE6=George Jones - Once a day
TTITLE7=Sammi Smith - Help me make it through the night
TTITLE8=Willie Nelson - Night life
TTITLE9=Mickey Gilley - Just out of reach
TTITLE10=Ferlin Husky - Gone
TTITLE11=Faron Young - It's four in the morning
TTITLE12=Buck Owens - Down on the corner of love
TTITLE13=Dave Dudley - Six days on the road
TTITLE14=Tex Ritter - The boll weevil song
TTITLE15=Georg Morgan - Red Rose from the blue side of town
EXTD=ID3G: 2
EXTT0=
EXTT1=
EXTT2=
EXTT3=
EXTT4=
EXTT5=
EXTT6=
EXTT7=
EXTT8=
EXTT9=
EXTT10=
EXTT11=
EXTT12=
EXTT13=
EXTT14=
EXTT15=
PLAYORDER=
